<svg xmlns="http://www.w3.org/2000/svg" xmlns:xlink="http://www.w3.org/1999/xlink" width="500" zoomAndPan="magnify" viewBox="0 0 375 374.999991" height="500" preserveAspectRatio="xMidYMid meet" version="1.0"><defs><clipPath id="0c3e800c2e"><path d="M 119.65625 135.285156 L 255.40625 135.285156 L 255.40625 239.535156 L 119.65625 239.535156 Z M 119.65625 135.285156 " clip-rule="nonzero"/></clipPath></defs><g clip-path="url(#0c3e800c2e)"><path fill="#14894e" d="M 245.992188 177.804688 L 245.992188 166.421875 C 245.992188 161.683594 242.113281 157.808594 237.375 157.808594 L 160.144531 157.808594 L 215.425781 151.773438 L 215.425781 141.746094 C 215.425781 139.769531 214.570312 138.070312 212.984375 136.890625 C 211.398438 135.710938 209.527344 135.382812 207.632812 135.953125 L 139.324219 156.511719 C 136.726562 157.289062 135.019531 159.589844 135.019531 162.300781 L 135.019531 181.800781 L 158.230469 181.800781 C 162.207031 181.800781 165.457031 185.054688 165.457031 189.03125 C 165.457031 193.007812 162.203125 196.261719 158.230469 196.261719 L 126.886719 196.261719 C 122.910156 196.261719 119.65625 199.515625 119.65625 203.492188 C 119.65625 207.46875 122.910156 210.722656 126.886719 210.722656 L 178.65625 210.722656 C 182.636719 210.722656 185.886719 213.976562 185.886719 217.953125 C 185.886719 221.929688 182.632812 225.183594 178.65625 225.183594 L 157.597656 225.183594 C 153.621094 225.183594 150.367188 228.4375 150.367188 232.414062 C 150.367188 236.390625 153.625 239.644531 157.597656 239.644531 L 237.375 239.644531 C 242.113281 239.644531 245.988281 235.765625 245.988281 231.027344 L 245.988281 219.644531 L 230.007812 219.644531 C 228.597656 219.644531 227.445312 218.492188 227.445312 217.082031 C 227.445312 215.671875 228.597656 214.519531 230.007812 214.519531 L 250.453125 214.519531 C 253.144531 214.519531 255.339844 212.324219 255.339844 209.632812 L 255.339844 187.816406 C 255.339844 185.128906 253.148438 182.929688 250.453125 182.929688 L 221.152344 182.929688 C 219.738281 182.929688 218.585938 181.777344 218.585938 180.367188 C 218.585938 178.957031 219.738281 177.800781 221.152344 177.800781 L 245.992188 177.800781 Z M 220.371094 194.242188 C 217.890625 194.242188 215.882812 196.25 215.882812 198.726562 C 215.882812 201.207031 217.890625 203.214844 220.371094 203.214844 C 222.847656 203.214844 224.855469 201.207031 224.855469 198.726562 C 224.855469 196.25 222.847656 194.242188 220.371094 194.242188 Z M 209.703125 198.726562 C 209.703125 192.859375 214.503906 188.058594 220.371094 188.058594 L 250.214844 188.058594 L 250.214844 209.390625 L 220.371094 209.390625 C 214.503906 209.390625 209.703125 204.59375 209.703125 198.726562 Z M 209.703125 198.726562 " fill-opacity="1" fill-rule="evenodd"/></g></svg>