<svg xmlns="http://www.w3.org/2000/svg" xmlns:xlink="http://www.w3.org/1999/xlink" width="500" zoomAndPan="magnify" viewBox="0 0 375 374.999991" height="500" preserveAspectRatio="xMidYMid meet" version="1.0"><defs><g/><clipPath id="73b5c5fb09"><path d="M 43.964844 154.332031 L 130.214844 154.332031 L 130.214844 220.332031 L 43.964844 220.332031 Z M 43.964844 154.332031 " clip-rule="nonzero"/></clipPath><clipPath id="f9a316bc47"><rect x="0" width="167" y="0" height="49"/></clipPath></defs><g clip-path="url(#73b5c5fb09)"><path fill="#14894e" d="M 124.21875 181.335938 L 124.21875 174.105469 C 124.21875 171.097656 121.757812 168.632812 118.746094 168.632812 L 69.6875 168.632812 L 104.804688 164.800781 L 104.804688 158.429688 C 104.804688 157.175781 104.261719 156.09375 103.253906 155.347656 C 102.246094 154.597656 101.054688 154.390625 99.855469 154.75 L 56.460938 167.808594 C 54.808594 168.304688 53.722656 169.765625 53.722656 171.488281 L 53.722656 183.875 L 68.46875 183.875 C 70.996094 183.875 73.0625 185.941406 73.0625 188.46875 C 73.0625 190.996094 70.992188 193.0625 68.46875 193.0625 L 48.558594 193.0625 C 46.03125 193.0625 43.964844 195.128906 43.964844 197.65625 C 43.964844 200.179688 46.03125 202.25 48.558594 202.25 L 81.445312 202.25 C 83.972656 202.25 86.039062 204.316406 86.039062 206.839844 C 86.039062 209.367188 83.972656 211.433594 81.445312 211.433594 L 68.070312 211.433594 C 65.542969 211.433594 63.476562 213.5 63.476562 216.027344 C 63.476562 218.554688 65.542969 220.621094 68.070312 220.621094 L 118.746094 220.621094 C 121.753906 220.621094 124.21875 218.15625 124.21875 215.148438 L 124.21875 207.917969 L 114.066406 207.917969 C 113.171875 207.917969 112.4375 207.183594 112.4375 206.289062 C 112.4375 205.390625 113.171875 204.660156 114.066406 204.660156 L 127.054688 204.660156 C 128.765625 204.660156 130.160156 203.265625 130.160156 201.554688 L 130.160156 187.699219 C 130.160156 185.988281 128.765625 184.59375 127.054688 184.59375 L 108.441406 184.59375 C 107.542969 184.59375 106.808594 183.863281 106.808594 182.964844 C 106.808594 182.070312 107.542969 181.335938 108.441406 181.335938 Z M 107.945312 191.777344 C 106.371094 191.777344 105.09375 193.054688 105.09375 194.628906 C 105.09375 196.203125 106.371094 197.480469 107.945312 197.480469 C 109.519531 197.480469 110.792969 196.203125 110.792969 194.628906 C 110.792969 193.054688 109.519531 191.777344 107.945312 191.777344 Z M 101.167969 194.628906 C 101.167969 190.902344 104.21875 187.851562 107.945312 187.851562 L 126.902344 187.851562 L 126.902344 201.402344 L 107.945312 201.402344 C 104.21875 201.402344 101.167969 198.355469 101.167969 194.628906 Z M 101.167969 194.628906 " fill-opacity="1" fill-rule="evenodd"/></g><g transform="matrix(1, 0, 0, 1, 139, 155)"><g clip-path="url(#f9a316bc47)"><g fill="#000000" fill-opacity="1"><g transform="translate(1.271934, 37.806283)"><g><path d="M 3.640625 -27.140625 L 15.515625 -27.140625 C 18.410156 -27.140625 20.984375 -26.578125 23.234375 -25.453125 C 25.484375 -24.328125 27.226562 -22.738281 28.46875 -20.6875 C 29.707031 -18.632812 30.328125 -16.265625 30.328125 -13.578125 C 30.328125 -10.890625 29.707031 -8.515625 28.46875 -6.453125 C 27.226562 -4.398438 25.484375 -2.8125 23.234375 -1.6875 C 20.984375 -0.5625 18.410156 0 15.515625 0 L 3.640625 0 Z M 15.28125 -4.265625 C 17.269531 -4.265625 19.019531 -4.644531 20.53125 -5.40625 C 22.039062 -6.164062 23.203125 -7.25 24.015625 -8.65625 C 24.835938 -10.070312 25.25 -11.710938 25.25 -13.578125 C 25.25 -15.429688 24.835938 -17.0625 24.015625 -18.46875 C 23.203125 -19.882812 22.039062 -20.972656 20.53125 -21.734375 C 19.019531 -22.492188 17.269531 -22.875 15.28125 -22.875 L 8.6875 -22.875 L 8.6875 -4.265625 Z M 15.28125 -4.265625 "/></g></g></g><g fill="#000000" fill-opacity="1"><g transform="translate(32.17246, 37.806283)"><g><path d="M 23.234375 -20.703125 L 23.234375 0 L 18.609375 0 L 18.609375 -2.640625 C 17.835938 -1.703125 16.867188 -0.984375 15.703125 -0.484375 C 14.546875 0.015625 13.289062 0.265625 11.9375 0.265625 C 9.175781 0.265625 7 -0.5 5.40625 -2.03125 C 3.820312 -3.570312 3.03125 -5.851562 3.03125 -8.875 L 3.03125 -20.703125 L 7.875 -20.703125 L 7.875 -9.546875 C 7.875 -7.679688 8.289062 -6.289062 9.125 -5.375 C 9.96875 -4.457031 11.164062 -4 12.71875 -4 C 14.445312 -4 15.820312 -4.535156 16.84375 -5.609375 C 17.863281 -6.679688 18.375 -8.222656 18.375 -10.234375 L 18.375 -20.703125 Z M 23.234375 -20.703125 "/></g></g></g><g fill="#000000" fill-opacity="1"><g transform="translate(57.451134, 37.806283)"><g><path d="M 35.484375 -20.703125 L 27.84375 0 L 23.1875 0 L 17.84375 -14.265625 L 12.40625 0 L 7.75 0 L 0.15625 -20.703125 L 4.734375 -20.703125 L 10.203125 -5.421875 L 15.90625 -20.703125 L 19.96875 -20.703125 L 25.5625 -5.359375 L 31.1875 -20.703125 Z M 35.484375 -20.703125 "/></g></g></g><g fill="#000000" fill-opacity="1"><g transform="translate(91.9574, 37.806283)"><g><path d="M 3.1875 -20.703125 L 8.03125 -20.703125 L 8.03125 0 L 3.1875 0 Z M 5.609375 -24.125 C 4.734375 -24.125 4 -24.398438 3.40625 -24.953125 C 2.8125 -25.515625 2.515625 -26.207031 2.515625 -27.03125 C 2.515625 -27.851562 2.8125 -28.539062 3.40625 -29.09375 C 4 -29.65625 4.734375 -29.9375 5.609375 -29.9375 C 6.492188 -29.9375 7.234375 -29.671875 7.828125 -29.140625 C 8.421875 -28.609375 8.71875 -27.941406 8.71875 -27.140625 C 8.71875 -26.285156 8.425781 -25.566406 7.84375 -24.984375 C 7.257812 -24.410156 6.515625 -24.125 5.609375 -24.125 Z M 5.609375 -24.125 "/></g></g></g><g fill="#000000" fill-opacity="1"><g transform="translate(102.037694, 37.806283)"><g><path d="M 15.625 -1.125 C 15.0625 -0.65625 14.367188 -0.304688 13.546875 -0.078125 C 12.734375 0.148438 11.875 0.265625 10.96875 0.265625 C 8.695312 0.265625 6.941406 -0.328125 5.703125 -1.515625 C 4.460938 -2.703125 3.84375 -4.429688 3.84375 -6.703125 L 3.84375 -16.671875 L 0.421875 -16.671875 L 0.421875 -20.546875 L 3.84375 -20.546875 L 3.84375 -25.28125 L 8.6875 -25.28125 L 8.6875 -20.546875 L 14.234375 -20.546875 L 14.234375 -16.671875 L 8.6875 -16.671875 L 8.6875 -6.828125 C 8.6875 -5.816406 8.929688 -5.046875 9.421875 -4.515625 C 9.910156 -3.984375 10.625 -3.71875 11.5625 -3.71875 C 12.644531 -3.71875 13.546875 -4.003906 14.265625 -4.578125 Z M 15.625 -1.125 "/></g></g></g><g fill="#000000" fill-opacity="1"><g transform="translate(117.352129, 37.806283)"><g><path d="M 11.640625 -8.875 L 8.03125 -5.46875 L 8.03125 0 L 3.1875 0 L 3.1875 -28.78125 L 8.03125 -28.78125 L 8.03125 -11.40625 L 18.078125 -20.703125 L 23.890625 -20.703125 L 15.234375 -12.015625 L 24.703125 0 L 18.8125 0 Z M 11.640625 -8.875 "/></g></g></g><g fill="#000000" fill-opacity="1"><g transform="translate(140.886094, 37.806283)"><g><path d="M 23.234375 -20.703125 L 23.234375 0 L 18.609375 0 L 18.609375 -2.640625 C 17.835938 -1.703125 16.867188 -0.984375 15.703125 -0.484375 C 14.546875 0.015625 13.289062 0.265625 11.9375 0.265625 C 9.175781 0.265625 7 -0.5 5.40625 -2.03125 C 3.820312 -3.570312 3.03125 -5.851562 3.03125 -8.875 L 3.03125 -20.703125 L 7.875 -20.703125 L 7.875 -9.546875 C 7.875 -7.679688 8.289062 -6.289062 9.125 -5.375 C 9.96875 -4.457031 11.164062 -4 12.71875 -4 C 14.445312 -4 15.820312 -4.535156 16.84375 -5.609375 C 17.863281 -6.679688 18.375 -8.222656 18.375 -10.234375 L 18.375 -20.703125 Z M 23.234375 -20.703125 "/></g></g></g></g></g><g fill="#14894e" fill-opacity="1"><g transform="translate(143.404243, 215.740239)"><g><path d="M 7.671875 0.1875 C 6.367188 0.1875 5.195312 -0.09375 4.15625 -0.65625 C 3.113281 -1.226562 2.289062 -2.015625 1.6875 -3.015625 C 1.09375 -4.015625 0.796875 -5.132812 0.796875 -6.375 C 0.796875 -7.613281 1.09375 -8.734375 1.6875 -9.734375 C 2.289062 -10.734375 3.113281 -11.515625 4.15625 -12.078125 C 5.195312 -12.648438 6.367188 -12.9375 7.671875 -12.9375 C 8.972656 -12.9375 10.144531 -12.648438 11.1875 -12.078125 C 12.226562 -11.515625 13.046875 -10.734375 13.640625 -9.734375 C 14.234375 -8.742188 14.53125 -7.625 14.53125 -6.375 C 14.53125 -5.125 14.234375 -4 13.640625 -3 C 13.046875 -2.007812 12.226562 -1.226562 11.1875 -0.65625 C 10.144531 -0.09375 8.972656 0.1875 7.671875 0.1875 Z M 7.671875 -1.890625 C 8.523438 -1.890625 9.289062 -2.082031 9.96875 -2.46875 C 10.644531 -2.851562 11.175781 -3.382812 11.5625 -4.0625 C 11.957031 -4.75 12.15625 -5.519531 12.15625 -6.375 C 12.15625 -7.226562 11.957031 -7.992188 11.5625 -8.671875 C 11.175781 -9.359375 10.644531 -9.894531 9.96875 -10.28125 C 9.289062 -10.664062 8.523438 -10.859375 7.671875 -10.859375 C 6.816406 -10.859375 6.050781 -10.664062 5.375 -10.28125 C 4.695312 -9.894531 4.160156 -9.359375 3.765625 -8.671875 C 3.378906 -7.992188 3.1875 -7.226562 3.1875 -6.375 C 3.1875 -5.519531 3.378906 -4.75 3.765625 -4.0625 C 4.160156 -3.382812 4.695312 -2.851562 5.375 -2.46875 C 6.050781 -2.082031 6.816406 -1.890625 7.671875 -1.890625 Z M 7.671875 -1.890625 "/></g></g></g><g fill="#14894e" fill-opacity="1"><g transform="translate(158.73786, 215.740239)"><g><path d="M 3.703125 0.1875 C 2.890625 0.1875 2.140625 0.0234375 1.453125 -0.296875 C 0.765625 -0.617188 0.203125 -1.070312 -0.234375 -1.65625 L 1.109375 -3.28125 C 1.816406 -2.3125 2.660156 -1.828125 3.640625 -1.828125 C 4.960938 -1.828125 5.625 -2.609375 5.625 -4.171875 L 5.625 -10.765625 L 1.09375 -10.765625 L 1.09375 -12.75 L 8 -12.75 L 8 -4.296875 C 8 -2.804688 7.632812 -1.6875 6.90625 -0.9375 C 6.175781 -0.1875 5.109375 0.1875 3.703125 0.1875 Z M 3.703125 0.1875 "/></g></g></g><g fill="#14894e" fill-opacity="1"><g transform="translate(168.335024, 215.740239)"><g><path d="M 7.671875 0.1875 C 6.367188 0.1875 5.195312 -0.09375 4.15625 -0.65625 C 3.113281 -1.226562 2.289062 -2.015625 1.6875 -3.015625 C 1.09375 -4.015625 0.796875 -5.132812 0.796875 -6.375 C 0.796875 -7.613281 1.09375 -8.734375 1.6875 -9.734375 C 2.289062 -10.734375 3.113281 -11.515625 4.15625 -12.078125 C 5.195312 -12.648438 6.367188 -12.9375 7.671875 -12.9375 C 8.972656 -12.9375 10.144531 -12.648438 11.1875 -12.078125 C 12.226562 -11.515625 13.046875 -10.734375 13.640625 -9.734375 C 14.234375 -8.742188 14.53125 -7.625 14.53125 -6.375 C 14.53125 -5.125 14.234375 -4 13.640625 -3 C 13.046875 -2.007812 12.226562 -1.226562 11.1875 -0.65625 C 10.144531 -0.09375 8.972656 0.1875 7.671875 0.1875 Z M 7.671875 -1.890625 C 8.523438 -1.890625 9.289062 -2.082031 9.96875 -2.46875 C 10.644531 -2.851562 11.175781 -3.382812 11.5625 -4.0625 C 11.957031 -4.75 12.15625 -5.519531 12.15625 -6.375 C 12.15625 -7.226562 11.957031 -7.992188 11.5625 -8.671875 C 11.175781 -9.359375 10.644531 -9.894531 9.96875 -10.28125 C 9.289062 -10.664062 8.523438 -10.859375 7.671875 -10.859375 C 6.816406 -10.859375 6.050781 -10.664062 5.375 -10.28125 C 4.695312 -9.894531 4.160156 -9.359375 3.765625 -8.671875 C 3.378906 -7.992188 3.1875 -7.226562 3.1875 -6.375 C 3.1875 -5.519531 3.378906 -4.75 3.765625 -4.0625 C 4.160156 -3.382812 4.695312 -2.851562 5.375 -2.46875 C 6.050781 -2.082031 6.816406 -1.890625 7.671875 -1.890625 Z M 7.671875 -1.890625 "/></g></g></g><g fill="#14894e" fill-opacity="1"><g transform="translate(183.668641, 215.740239)"><g/></g></g><g fill="#14894e" fill-opacity="1"><g transform="translate(188.694862, 215.740239)"><g><path d="M 10.75 -6.625 C 11.457031 -6.394531 12.015625 -6.007812 12.421875 -5.46875 C 12.835938 -4.925781 13.046875 -4.257812 13.046875 -3.46875 C 13.046875 -2.351562 12.617188 -1.492188 11.765625 -0.890625 C 10.921875 -0.296875 9.679688 0 8.046875 0 L 1.71875 0 L 1.71875 -12.75 L 7.6875 -12.75 C 9.195312 -12.75 10.359375 -12.453125 11.171875 -11.859375 C 11.984375 -11.273438 12.390625 -10.46875 12.390625 -9.4375 C 12.390625 -8.800781 12.242188 -8.238281 11.953125 -7.75 C 11.660156 -7.269531 11.257812 -6.894531 10.75 -6.625 Z M 4.078125 -10.890625 L 4.078125 -7.375 L 7.4375 -7.375 C 8.257812 -7.375 8.890625 -7.519531 9.328125 -7.8125 C 9.773438 -8.113281 10 -8.550781 10 -9.125 C 10 -9.707031 9.773438 -10.144531 9.328125 -10.4375 C 8.890625 -10.738281 8.257812 -10.890625 7.4375 -10.890625 Z M 7.90625 -1.859375 C 9.738281 -1.859375 10.65625 -2.472656 10.65625 -3.703125 C 10.65625 -4.921875 9.738281 -5.53125 7.90625 -5.53125 L 4.078125 -5.53125 L 4.078125 -1.859375 Z M 7.90625 -1.859375 "/></g></g></g><g fill="#14894e" fill-opacity="1"><g transform="translate(202.553394, 215.740239)"><g><path d="M 7.671875 0.1875 C 6.367188 0.1875 5.195312 -0.09375 4.15625 -0.65625 C 3.113281 -1.226562 2.289062 -2.015625 1.6875 -3.015625 C 1.09375 -4.015625 0.796875 -5.132812 0.796875 -6.375 C 0.796875 -7.613281 1.09375 -8.734375 1.6875 -9.734375 C 2.289062 -10.734375 3.113281 -11.515625 4.15625 -12.078125 C 5.195312 -12.648438 6.367188 -12.9375 7.671875 -12.9375 C 8.972656 -12.9375 10.144531 -12.648438 11.1875 -12.078125 C 12.226562 -11.515625 13.046875 -10.734375 13.640625 -9.734375 C 14.234375 -8.742188 14.53125 -7.625 14.53125 -6.375 C 14.53125 -5.125 14.234375 -4 13.640625 -3 C 13.046875 -2.007812 12.226562 -1.226562 11.1875 -0.65625 C 10.144531 -0.09375 8.972656 0.1875 7.671875 0.1875 Z M 7.671875 -1.890625 C 8.523438 -1.890625 9.289062 -2.082031 9.96875 -2.46875 C 10.644531 -2.851562 11.175781 -3.382812 11.5625 -4.0625 C 11.957031 -4.75 12.15625 -5.519531 12.15625 -6.375 C 12.15625 -7.226562 11.957031 -7.992188 11.5625 -8.671875 C 11.175781 -9.359375 10.644531 -9.894531 9.96875 -10.28125 C 9.289062 -10.664062 8.523438 -10.859375 7.671875 -10.859375 C 6.816406 -10.859375 6.050781 -10.664062 5.375 -10.28125 C 4.695312 -9.894531 4.160156 -9.359375 3.765625 -8.671875 C 3.378906 -7.992188 3.1875 -7.226562 3.1875 -6.375 C 3.1875 -5.519531 3.378906 -4.75 3.765625 -4.0625 C 4.160156 -3.382812 4.695312 -2.851562 5.375 -2.46875 C 6.050781 -2.082031 6.816406 -1.890625 7.671875 -1.890625 Z M 7.671875 -1.890625 "/></g></g></g><g fill="#14894e" fill-opacity="1"><g transform="translate(217.887011, 215.740239)"><g><path d="M 10.0625 0 L 7.453125 -3.734375 C 7.335938 -3.722656 7.171875 -3.71875 6.953125 -3.71875 L 4.078125 -3.71875 L 4.078125 0 L 1.71875 0 L 1.71875 -12.75 L 6.953125 -12.75 C 8.066406 -12.75 9.03125 -12.566406 9.84375 -12.203125 C 10.664062 -11.835938 11.296875 -11.316406 11.734375 -10.640625 C 12.171875 -9.960938 12.390625 -9.15625 12.390625 -8.21875 C 12.390625 -7.257812 12.15625 -6.429688 11.6875 -5.734375 C 11.21875 -5.046875 10.546875 -4.53125 9.671875 -4.1875 L 12.609375 0 Z M 10 -8.21875 C 10 -9.03125 9.734375 -9.65625 9.203125 -10.09375 C 8.671875 -10.53125 7.882812 -10.75 6.84375 -10.75 L 4.078125 -10.75 L 4.078125 -5.671875 L 6.84375 -5.671875 C 7.882812 -5.671875 8.671875 -5.890625 9.203125 -6.328125 C 9.734375 -6.773438 10 -7.40625 10 -8.21875 Z M 10 -8.21875 "/></g></g></g><g fill="#14894e" fill-opacity="1"><g transform="translate(231.199212, 215.740239)"><g><path d="M 7.671875 0.1875 C 6.367188 0.1875 5.195312 -0.09375 4.15625 -0.65625 C 3.113281 -1.226562 2.289062 -2.015625 1.6875 -3.015625 C 1.09375 -4.015625 0.796875 -5.132812 0.796875 -6.375 C 0.796875 -7.613281 1.09375 -8.734375 1.6875 -9.734375 C 2.289062 -10.734375 3.113281 -11.515625 4.15625 -12.078125 C 5.195312 -12.648438 6.367188 -12.9375 7.671875 -12.9375 C 8.972656 -12.9375 10.144531 -12.648438 11.1875 -12.078125 C 12.226562 -11.515625 13.046875 -10.734375 13.640625 -9.734375 C 14.234375 -8.742188 14.53125 -7.625 14.53125 -6.375 C 14.53125 -5.125 14.234375 -4 13.640625 -3 C 13.046875 -2.007812 12.226562 -1.226562 11.1875 -0.65625 C 10.144531 -0.09375 8.972656 0.1875 7.671875 0.1875 Z M 7.671875 -1.890625 C 8.523438 -1.890625 9.289062 -2.082031 9.96875 -2.46875 C 10.644531 -2.851562 11.175781 -3.382812 11.5625 -4.0625 C 11.957031 -4.75 12.15625 -5.519531 12.15625 -6.375 C 12.15625 -7.226562 11.957031 -7.992188 11.5625 -8.671875 C 11.175781 -9.359375 10.644531 -9.894531 9.96875 -10.28125 C 9.289062 -10.664062 8.523438 -10.859375 7.671875 -10.859375 C 6.816406 -10.859375 6.050781 -10.664062 5.375 -10.28125 C 4.695312 -9.894531 4.160156 -9.359375 3.765625 -8.671875 C 3.378906 -7.992188 3.1875 -7.226562 3.1875 -6.375 C 3.1875 -5.519531 3.378906 -4.75 3.765625 -4.0625 C 4.160156 -3.382812 4.695312 -2.851562 5.375 -2.46875 C 6.050781 -2.082031 6.816406 -1.890625 7.671875 -1.890625 Z M 7.671875 -1.890625 "/></g></g></g><g fill="#14894e" fill-opacity="1"><g transform="translate(246.532829, 215.740239)"><g><path d="M 5.671875 0.1875 C 4.679688 0.1875 3.726562 0.046875 2.8125 -0.234375 C 1.894531 -0.515625 1.171875 -0.882812 0.640625 -1.34375 L 1.453125 -3.1875 C 1.972656 -2.769531 2.613281 -2.429688 3.375 -2.171875 C 4.132812 -1.910156 4.898438 -1.78125 5.671875 -1.78125 C 6.617188 -1.78125 7.320312 -1.929688 7.78125 -2.234375 C 8.25 -2.546875 8.484375 -2.945312 8.484375 -3.4375 C 8.484375 -3.800781 8.351562 -4.101562 8.09375 -4.34375 C 7.832031 -4.582031 7.5 -4.765625 7.09375 -4.890625 C 6.695312 -5.023438 6.15625 -5.179688 5.46875 -5.359375 C 4.5 -5.585938 3.710938 -5.816406 3.109375 -6.046875 C 2.503906 -6.273438 1.984375 -6.632812 1.546875 -7.125 C 1.117188 -7.625 0.90625 -8.289062 0.90625 -9.125 C 0.90625 -9.832031 1.097656 -10.472656 1.484375 -11.046875 C 1.867188 -11.628906 2.445312 -12.085938 3.21875 -12.421875 C 3.988281 -12.765625 4.929688 -12.9375 6.046875 -12.9375 C 6.828125 -12.9375 7.59375 -12.835938 8.34375 -12.640625 C 9.09375 -12.453125 9.742188 -12.175781 10.296875 -11.8125 L 9.546875 -9.96875 C 8.984375 -10.289062 8.398438 -10.535156 7.796875 -10.703125 C 7.191406 -10.878906 6.601562 -10.96875 6.03125 -10.96875 C 5.09375 -10.96875 4.394531 -10.804688 3.9375 -10.484375 C 3.488281 -10.171875 3.265625 -9.753906 3.265625 -9.234375 C 3.265625 -8.867188 3.394531 -8.570312 3.65625 -8.34375 C 3.914062 -8.113281 4.242188 -7.929688 4.640625 -7.796875 C 5.046875 -7.660156 5.59375 -7.507812 6.28125 -7.34375 C 7.226562 -7.125 8.003906 -6.894531 8.609375 -6.65625 C 9.222656 -6.414062 9.742188 -6.050781 10.171875 -5.5625 C 10.609375 -5.082031 10.828125 -4.429688 10.828125 -3.609375 C 10.828125 -2.898438 10.632812 -2.257812 10.25 -1.6875 C 9.863281 -1.125 9.28125 -0.671875 8.5 -0.328125 C 7.726562 0.015625 6.785156 0.1875 5.671875 0.1875 Z M 5.671875 0.1875 "/></g></g></g><g fill="#14894e" fill-opacity="1"><g transform="translate(257.987517, 215.740239)"><g><path d="M 1.203125 -12.75 L 3.90625 -12.75 L 3.4375 -4.234375 L 1.640625 -4.234375 Z M 2.546875 0.125 C 2.117188 0.125 1.765625 -0.0078125 1.484375 -0.28125 C 1.210938 -0.550781 1.078125 -0.890625 1.078125 -1.296875 C 1.078125 -1.691406 1.210938 -2.023438 1.484375 -2.296875 C 1.765625 -2.566406 2.117188 -2.703125 2.546875 -2.703125 C 2.960938 -2.703125 3.304688 -2.566406 3.578125 -2.296875 C 3.847656 -2.023438 3.984375 -1.691406 3.984375 -1.296875 C 3.984375 -0.890625 3.847656 -0.550781 3.578125 -0.28125 C 3.304688 -0.0078125 2.960938 0.125 2.546875 0.125 Z M 2.546875 0.125 "/></g></g></g></svg>