<svg xmlns="http://www.w3.org/2000/svg" xmlns:xlink="http://www.w3.org/1999/xlink" width="500" zoomAndPan="magnify" viewBox="0 0 375 374.999991" height="500" preserveAspectRatio="xMidYMid meet" version="1.0"><defs><g/><clipPath id="c8d35c5a72"><path d="M 119.65625 97.113281 L 255.40625 97.113281 L 255.40625 201.363281 L 119.65625 201.363281 Z M 119.65625 97.113281 " clip-rule="nonzero"/></clipPath><clipPath id="c28110bdb0"><rect x="0" width="151" y="0" height="23"/></clipPath><clipPath id="c419daf1e4"><rect x="0" width="225" y="0" height="59"/></clipPath></defs><g clip-path="url(#c8d35c5a72)"><path fill="#14894e" d="M 245.992188 139.632812 L 245.992188 128.246094 C 245.992188 123.511719 242.113281 119.632812 237.375 119.632812 L 160.144531 119.632812 L 215.425781 113.601562 L 215.425781 103.570312 C 215.425781 101.59375 214.570312 99.894531 212.984375 98.71875 C 211.398438 97.539062 209.527344 97.210938 207.632812 97.78125 L 139.324219 118.335938 C 136.726562 119.117188 135.019531 121.414062 135.019531 124.128906 L 135.019531 143.625 L 158.230469 143.625 C 162.207031 143.625 165.457031 146.878906 165.457031 150.855469 C 165.457031 154.835938 162.203125 158.085938 158.230469 158.085938 L 126.886719 158.085938 C 122.910156 158.089844 119.65625 161.34375 119.65625 165.320312 C 119.65625 169.296875 122.910156 172.550781 126.886719 172.550781 L 178.65625 172.550781 C 182.636719 172.550781 185.886719 175.804688 185.886719 179.777344 C 185.886719 183.753906 182.632812 187.007812 178.65625 187.007812 L 157.597656 187.007812 C 153.621094 187.007812 150.367188 190.261719 150.367188 194.238281 C 150.367188 198.21875 153.625 201.46875 157.597656 201.46875 L 237.375 201.46875 C 242.113281 201.46875 245.988281 197.59375 245.988281 192.855469 L 245.988281 181.472656 L 230.007812 181.472656 C 228.597656 181.472656 227.445312 180.320312 227.445312 178.910156 C 227.445312 177.496094 228.597656 176.34375 230.007812 176.34375 L 250.453125 176.34375 C 253.144531 176.34375 255.339844 174.148438 255.339844 171.457031 L 255.339844 149.644531 C 255.339844 146.953125 253.148438 144.757812 250.453125 144.757812 L 221.152344 144.757812 C 219.738281 144.757812 218.585938 143.605469 218.585938 142.195312 C 218.585938 140.785156 219.738281 139.628906 221.152344 139.628906 L 245.992188 139.628906 Z M 220.371094 156.066406 C 217.890625 156.066406 215.882812 158.078125 215.882812 160.554688 C 215.882812 163.03125 217.890625 165.042969 220.371094 165.042969 C 222.847656 165.042969 224.855469 163.03125 224.855469 160.554688 C 224.855469 158.074219 222.847656 156.066406 220.371094 156.066406 Z M 209.703125 160.550781 C 209.703125 154.6875 214.503906 149.886719 220.371094 149.886719 L 250.214844 149.886719 L 250.214844 171.21875 L 220.371094 171.21875 C 214.503906 171.21875 209.703125 166.417969 209.703125 160.550781 Z M 209.703125 160.550781 " fill-opacity="1" fill-rule="evenodd"/></g><g transform="matrix(1, 0, 0, 1, 113, 256)"><g clip-path="url(#c28110bdb0)"><g fill="#14894e" fill-opacity="1"><g transform="translate(1.466287, 16.962317)"><g><path d="M 7.671875 0.1875 C 6.367188 0.1875 5.195312 -0.09375 4.15625 -0.65625 C 3.113281 -1.226562 2.289062 -2.015625 1.6875 -3.015625 C 1.09375 -4.015625 0.796875 -5.132812 0.796875 -6.375 C 0.796875 -7.613281 1.09375 -8.734375 1.6875 -9.734375 C 2.289062 -10.734375 3.113281 -11.515625 4.15625 -12.078125 C 5.195312 -12.648438 6.367188 -12.9375 7.671875 -12.9375 C 8.972656 -12.9375 10.144531 -12.648438 11.1875 -12.078125 C 12.226562 -11.515625 13.046875 -10.734375 13.640625 -9.734375 C 14.234375 -8.742188 14.53125 -7.625 14.53125 -6.375 C 14.53125 -5.125 14.234375 -4 13.640625 -3 C 13.046875 -2.007812 12.226562 -1.226562 11.1875 -0.65625 C 10.144531 -0.09375 8.972656 0.1875 7.671875 0.1875 Z M 7.671875 -1.890625 C 8.523438 -1.890625 9.289062 -2.082031 9.96875 -2.46875 C 10.644531 -2.851562 11.175781 -3.382812 11.5625 -4.0625 C 11.957031 -4.75 12.15625 -5.519531 12.15625 -6.375 C 12.15625 -7.226562 11.957031 -7.992188 11.5625 -8.671875 C 11.175781 -9.359375 10.644531 -9.894531 9.96875 -10.28125 C 9.289062 -10.664062 8.523438 -10.859375 7.671875 -10.859375 C 6.816406 -10.859375 6.050781 -10.664062 5.375 -10.28125 C 4.695312 -9.894531 4.160156 -9.359375 3.765625 -8.671875 C 3.378906 -7.992188 3.1875 -7.226562 3.1875 -6.375 C 3.1875 -5.519531 3.378906 -4.75 3.765625 -4.0625 C 4.160156 -3.382812 4.695312 -2.851562 5.375 -2.46875 C 6.050781 -2.082031 6.816406 -1.890625 7.671875 -1.890625 Z M 7.671875 -1.890625 "/></g></g></g><g fill="#14894e" fill-opacity="1"><g transform="translate(19.734008, 16.962317)"><g><path d="M 3.703125 0.1875 C 2.890625 0.1875 2.140625 0.0234375 1.453125 -0.296875 C 0.765625 -0.617188 0.203125 -1.070312 -0.234375 -1.65625 L 1.109375 -3.28125 C 1.816406 -2.3125 2.660156 -1.828125 3.640625 -1.828125 C 4.960938 -1.828125 5.625 -2.609375 5.625 -4.171875 L 5.625 -10.765625 L 1.09375 -10.765625 L 1.09375 -12.75 L 8 -12.75 L 8 -4.296875 C 8 -2.804688 7.632812 -1.6875 6.90625 -0.9375 C 6.175781 -0.1875 5.109375 0.1875 3.703125 0.1875 Z M 3.703125 0.1875 "/></g></g></g><g fill="#14894e" fill-opacity="1"><g transform="translate(32.264944, 16.962317)"><g><path d="M 7.671875 0.1875 C 6.367188 0.1875 5.195312 -0.09375 4.15625 -0.65625 C 3.113281 -1.226562 2.289062 -2.015625 1.6875 -3.015625 C 1.09375 -4.015625 0.796875 -5.132812 0.796875 -6.375 C 0.796875 -7.613281 1.09375 -8.734375 1.6875 -9.734375 C 2.289062 -10.734375 3.113281 -11.515625 4.15625 -12.078125 C 5.195312 -12.648438 6.367188 -12.9375 7.671875 -12.9375 C 8.972656 -12.9375 10.144531 -12.648438 11.1875 -12.078125 C 12.226562 -11.515625 13.046875 -10.734375 13.640625 -9.734375 C 14.234375 -8.742188 14.53125 -7.625 14.53125 -6.375 C 14.53125 -5.125 14.234375 -4 13.640625 -3 C 13.046875 -2.007812 12.226562 -1.226562 11.1875 -0.65625 C 10.144531 -0.09375 8.972656 0.1875 7.671875 0.1875 Z M 7.671875 -1.890625 C 8.523438 -1.890625 9.289062 -2.082031 9.96875 -2.46875 C 10.644531 -2.851562 11.175781 -3.382812 11.5625 -4.0625 C 11.957031 -4.75 12.15625 -5.519531 12.15625 -6.375 C 12.15625 -7.226562 11.957031 -7.992188 11.5625 -8.671875 C 11.175781 -9.359375 10.644531 -9.894531 9.96875 -10.28125 C 9.289062 -10.664062 8.523438 -10.859375 7.671875 -10.859375 C 6.816406 -10.859375 6.050781 -10.664062 5.375 -10.28125 C 4.695312 -9.894531 4.160156 -9.359375 3.765625 -8.671875 C 3.378906 -7.992188 3.1875 -7.226562 3.1875 -6.375 C 3.1875 -5.519531 3.378906 -4.75 3.765625 -4.0625 C 4.160156 -3.382812 4.695312 -2.851562 5.375 -2.46875 C 6.050781 -2.082031 6.816406 -1.890625 7.671875 -1.890625 Z M 7.671875 -1.890625 "/></g></g></g><g fill="#14894e" fill-opacity="1"><g transform="translate(50.532664, 16.962317)"><g/></g></g><g fill="#14894e" fill-opacity="1"><g transform="translate(58.492372, 16.962317)"><g><path d="M 10.75 -6.625 C 11.457031 -6.394531 12.015625 -6.007812 12.421875 -5.46875 C 12.835938 -4.925781 13.046875 -4.257812 13.046875 -3.46875 C 13.046875 -2.351562 12.617188 -1.492188 11.765625 -0.890625 C 10.921875 -0.296875 9.679688 0 8.046875 0 L 1.71875 0 L 1.71875 -12.75 L 7.6875 -12.75 C 9.195312 -12.75 10.359375 -12.453125 11.171875 -11.859375 C 11.984375 -11.273438 12.390625 -10.46875 12.390625 -9.4375 C 12.390625 -8.800781 12.242188 -8.238281 11.953125 -7.75 C 11.660156 -7.269531 11.257812 -6.894531 10.75 -6.625 Z M 4.078125 -10.890625 L 4.078125 -7.375 L 7.4375 -7.375 C 8.257812 -7.375 8.890625 -7.519531 9.328125 -7.8125 C 9.773438 -8.113281 10 -8.550781 10 -9.125 C 10 -9.707031 9.773438 -10.144531 9.328125 -10.4375 C 8.890625 -10.738281 8.257812 -10.890625 7.4375 -10.890625 Z M 7.90625 -1.859375 C 9.738281 -1.859375 10.65625 -2.472656 10.65625 -3.703125 C 10.65625 -4.921875 9.738281 -5.53125 7.90625 -5.53125 L 4.078125 -5.53125 L 4.078125 -1.859375 Z M 7.90625 -1.859375 "/></g></g></g><g fill="#14894e" fill-opacity="1"><g transform="translate(75.284918, 16.962317)"><g><path d="M 7.671875 0.1875 C 6.367188 0.1875 5.195312 -0.09375 4.15625 -0.65625 C 3.113281 -1.226562 2.289062 -2.015625 1.6875 -3.015625 C 1.09375 -4.015625 0.796875 -5.132812 0.796875 -6.375 C 0.796875 -7.613281 1.09375 -8.734375 1.6875 -9.734375 C 2.289062 -10.734375 3.113281 -11.515625 4.15625 -12.078125 C 5.195312 -12.648438 6.367188 -12.9375 7.671875 -12.9375 C 8.972656 -12.9375 10.144531 -12.648438 11.1875 -12.078125 C 12.226562 -11.515625 13.046875 -10.734375 13.640625 -9.734375 C 14.234375 -8.742188 14.53125 -7.625 14.53125 -6.375 C 14.53125 -5.125 14.234375 -4 13.640625 -3 C 13.046875 -2.007812 12.226562 -1.226562 11.1875 -0.65625 C 10.144531 -0.09375 8.972656 0.1875 7.671875 0.1875 Z M 7.671875 -1.890625 C 8.523438 -1.890625 9.289062 -2.082031 9.96875 -2.46875 C 10.644531 -2.851562 11.175781 -3.382812 11.5625 -4.0625 C 11.957031 -4.75 12.15625 -5.519531 12.15625 -6.375 C 12.15625 -7.226562 11.957031 -7.992188 11.5625 -8.671875 C 11.175781 -9.359375 10.644531 -9.894531 9.96875 -10.28125 C 9.289062 -10.664062 8.523438 -10.859375 7.671875 -10.859375 C 6.816406 -10.859375 6.050781 -10.664062 5.375 -10.28125 C 4.695312 -9.894531 4.160156 -9.359375 3.765625 -8.671875 C 3.378906 -7.992188 3.1875 -7.226562 3.1875 -6.375 C 3.1875 -5.519531 3.378906 -4.75 3.765625 -4.0625 C 4.160156 -3.382812 4.695312 -2.851562 5.375 -2.46875 C 6.050781 -2.082031 6.816406 -1.890625 7.671875 -1.890625 Z M 7.671875 -1.890625 "/></g></g></g><g fill="#14894e" fill-opacity="1"><g transform="translate(93.552638, 16.962317)"><g><path d="M 10.0625 0 L 7.453125 -3.734375 C 7.335938 -3.722656 7.171875 -3.71875 6.953125 -3.71875 L 4.078125 -3.71875 L 4.078125 0 L 1.71875 0 L 1.71875 -12.75 L 6.953125 -12.75 C 8.066406 -12.75 9.03125 -12.566406 9.84375 -12.203125 C 10.664062 -11.835938 11.296875 -11.316406 11.734375 -10.640625 C 12.171875 -9.960938 12.390625 -9.15625 12.390625 -8.21875 C 12.390625 -7.257812 12.15625 -6.429688 11.6875 -5.734375 C 11.21875 -5.046875 10.546875 -4.53125 9.671875 -4.1875 L 12.609375 0 Z M 10 -8.21875 C 10 -9.03125 9.734375 -9.65625 9.203125 -10.09375 C 8.671875 -10.53125 7.882812 -10.75 6.84375 -10.75 L 4.078125 -10.75 L 4.078125 -5.671875 L 6.84375 -5.671875 C 7.882812 -5.671875 8.671875 -5.890625 9.203125 -6.328125 C 9.734375 -6.773438 10 -7.40625 10 -8.21875 Z M 10 -8.21875 "/></g></g></g><g fill="#14894e" fill-opacity="1"><g transform="translate(109.798825, 16.962317)"><g><path d="M 7.671875 0.1875 C 6.367188 0.1875 5.195312 -0.09375 4.15625 -0.65625 C 3.113281 -1.226562 2.289062 -2.015625 1.6875 -3.015625 C 1.09375 -4.015625 0.796875 -5.132812 0.796875 -6.375 C 0.796875 -7.613281 1.09375 -8.734375 1.6875 -9.734375 C 2.289062 -10.734375 3.113281 -11.515625 4.15625 -12.078125 C 5.195312 -12.648438 6.367188 -12.9375 7.671875 -12.9375 C 8.972656 -12.9375 10.144531 -12.648438 11.1875 -12.078125 C 12.226562 -11.515625 13.046875 -10.734375 13.640625 -9.734375 C 14.234375 -8.742188 14.53125 -7.625 14.53125 -6.375 C 14.53125 -5.125 14.234375 -4 13.640625 -3 C 13.046875 -2.007812 12.226562 -1.226562 11.1875 -0.65625 C 10.144531 -0.09375 8.972656 0.1875 7.671875 0.1875 Z M 7.671875 -1.890625 C 8.523438 -1.890625 9.289062 -2.082031 9.96875 -2.46875 C 10.644531 -2.851562 11.175781 -3.382812 11.5625 -4.0625 C 11.957031 -4.75 12.15625 -5.519531 12.15625 -6.375 C 12.15625 -7.226562 11.957031 -7.992188 11.5625 -8.671875 C 11.175781 -9.359375 10.644531 -9.894531 9.96875 -10.28125 C 9.289062 -10.664062 8.523438 -10.859375 7.671875 -10.859375 C 6.816406 -10.859375 6.050781 -10.664062 5.375 -10.28125 C 4.695312 -9.894531 4.160156 -9.359375 3.765625 -8.671875 C 3.378906 -7.992188 3.1875 -7.226562 3.1875 -6.375 C 3.1875 -5.519531 3.378906 -4.75 3.765625 -4.0625 C 4.160156 -3.382812 4.695312 -2.851562 5.375 -2.46875 C 6.050781 -2.082031 6.816406 -1.890625 7.671875 -1.890625 Z M 7.671875 -1.890625 "/></g></g></g><g fill="#14894e" fill-opacity="1"><g transform="translate(128.066546, 16.962317)"><g><path d="M 5.671875 0.1875 C 4.679688 0.1875 3.726562 0.046875 2.8125 -0.234375 C 1.894531 -0.515625 1.171875 -0.882812 0.640625 -1.34375 L 1.453125 -3.1875 C 1.972656 -2.769531 2.613281 -2.429688 3.375 -2.171875 C 4.132812 -1.910156 4.898438 -1.78125 5.671875 -1.78125 C 6.617188 -1.78125 7.320312 -1.929688 7.78125 -2.234375 C 8.25 -2.546875 8.484375 -2.945312 8.484375 -3.4375 C 8.484375 -3.800781 8.351562 -4.101562 8.09375 -4.34375 C 7.832031 -4.582031 7.5 -4.765625 7.09375 -4.890625 C 6.695312 -5.023438 6.15625 -5.179688 5.46875 -5.359375 C 4.5 -5.585938 3.710938 -5.816406 3.109375 -6.046875 C 2.503906 -6.273438 1.984375 -6.632812 1.546875 -7.125 C 1.117188 -7.625 0.90625 -8.289062 0.90625 -9.125 C 0.90625 -9.832031 1.097656 -10.472656 1.484375 -11.046875 C 1.867188 -11.628906 2.445312 -12.085938 3.21875 -12.421875 C 3.988281 -12.765625 4.929688 -12.9375 6.046875 -12.9375 C 6.828125 -12.9375 7.59375 -12.835938 8.34375 -12.640625 C 9.09375 -12.453125 9.742188 -12.175781 10.296875 -11.8125 L 9.546875 -9.96875 C 8.984375 -10.289062 8.398438 -10.535156 7.796875 -10.703125 C 7.191406 -10.878906 6.601562 -10.96875 6.03125 -10.96875 C 5.09375 -10.96875 4.394531 -10.804688 3.9375 -10.484375 C 3.488281 -10.171875 3.265625 -9.753906 3.265625 -9.234375 C 3.265625 -8.867188 3.394531 -8.570312 3.65625 -8.34375 C 3.914062 -8.113281 4.242188 -7.929688 4.640625 -7.796875 C 5.046875 -7.660156 5.59375 -7.507812 6.28125 -7.34375 C 7.226562 -7.125 8.003906 -6.894531 8.609375 -6.65625 C 9.222656 -6.414062 9.742188 -6.050781 10.171875 -5.5625 C 10.609375 -5.082031 10.828125 -4.429688 10.828125 -3.609375 C 10.828125 -2.898438 10.632812 -2.257812 10.25 -1.6875 C 9.863281 -1.125 9.28125 -0.671875 8.5 -0.328125 C 7.726562 0.015625 6.785156 0.1875 5.671875 0.1875 Z M 5.671875 0.1875 "/></g></g></g><g fill="#14894e" fill-opacity="1"><g transform="translate(142.455102, 16.962317)"><g><path d="M 1.203125 -12.75 L 3.90625 -12.75 L 3.4375 -4.234375 L 1.640625 -4.234375 Z M 2.546875 0.125 C 2.117188 0.125 1.765625 -0.0078125 1.484375 -0.28125 C 1.210938 -0.550781 1.078125 -0.890625 1.078125 -1.296875 C 1.078125 -1.691406 1.210938 -2.023438 1.484375 -2.296875 C 1.765625 -2.566406 2.117188 -2.703125 2.546875 -2.703125 C 2.960938 -2.703125 3.304688 -2.566406 3.578125 -2.296875 C 3.847656 -2.023438 3.984375 -1.691406 3.984375 -1.296875 C 3.984375 -0.890625 3.847656 -0.550781 3.578125 -0.28125 C 3.304688 -0.0078125 2.960938 0.125 2.546875 0.125 Z M 2.546875 0.125 "/></g></g></g></g></g><g transform="matrix(1, 0, 0, 1, 76, 204)"><g clip-path="url(#c419daf1e4)"><g fill="#000000" fill-opacity="1"><g transform="translate(1.150529, 46.250058)"><g><path d="M 4.390625 -32.734375 L 18.703125 -32.734375 C 22.191406 -32.734375 25.289062 -32.054688 28 -30.703125 C 30.71875 -29.347656 32.828125 -27.429688 34.328125 -24.953125 C 35.828125 -22.472656 36.578125 -19.613281 36.578125 -16.375 C 36.578125 -13.125 35.828125 -10.257812 34.328125 -7.78125 C 32.828125 -5.300781 30.71875 -3.382812 28 -2.03125 C 25.289062 -0.675781 22.191406 0 18.703125 0 L 4.390625 0 Z M 18.421875 -5.140625 C 20.828125 -5.140625 22.941406 -5.597656 24.765625 -6.515625 C 26.585938 -7.441406 27.988281 -8.753906 28.96875 -10.453125 C 29.945312 -12.148438 30.4375 -14.125 30.4375 -16.375 C 30.4375 -18.613281 29.945312 -20.582031 28.96875 -22.28125 C 27.988281 -23.976562 26.585938 -25.285156 24.765625 -26.203125 C 22.941406 -27.128906 20.828125 -27.59375 18.421875 -27.59375 L 10.46875 -27.59375 L 10.46875 -5.140625 Z M 18.421875 -5.140625 "/></g></g></g><g fill="#000000" fill-opacity="1"><g transform="translate(41.826218, 46.250058)"><g><path d="M 28.015625 -24.96875 L 28.015625 0 L 22.453125 0 L 22.453125 -3.1875 C 21.515625 -2.0625 20.34375 -1.191406 18.9375 -0.578125 C 17.53125 0.0234375 16.019531 0.328125 14.40625 0.328125 C 11.070312 0.328125 8.441406 -0.597656 6.515625 -2.453125 C 4.597656 -4.304688 3.640625 -7.054688 3.640625 -10.703125 L 3.640625 -24.96875 L 9.5 -24.96875 L 9.5 -11.5 C 9.5 -9.257812 10.003906 -7.582031 11.015625 -6.46875 C 12.023438 -5.363281 13.46875 -4.8125 15.34375 -4.8125 C 17.425781 -4.8125 19.082031 -5.457031 20.3125 -6.75 C 21.550781 -8.050781 22.171875 -9.914062 22.171875 -12.34375 L 22.171875 -24.96875 Z M 28.015625 -24.96875 "/></g></g></g><g fill="#000000" fill-opacity="1"><g transform="translate(75.72275, 46.250058)"><g><path d="M 42.796875 -24.96875 L 33.578125 0 L 27.96875 0 L 21.515625 -17.203125 L 14.96875 0 L 9.359375 0 L 0.1875 -24.96875 L 5.703125 -24.96875 L 12.296875 -6.546875 L 19.171875 -24.96875 L 24.078125 -24.96875 L 30.8125 -6.453125 L 37.59375 -24.96875 Z M 42.796875 -24.96875 "/></g></g></g><g fill="#000000" fill-opacity="1"><g transform="translate(120.746442, 46.250058)"><g><path d="M 3.828125 -24.96875 L 9.6875 -24.96875 L 9.6875 0 L 3.828125 0 Z M 6.78125 -29.09375 C 5.71875 -29.09375 4.828125 -29.425781 4.109375 -30.09375 C 3.398438 -30.757812 3.046875 -31.59375 3.046875 -32.59375 C 3.046875 -33.59375 3.398438 -34.425781 4.109375 -35.09375 C 4.828125 -35.769531 5.71875 -36.109375 6.78125 -36.109375 C 7.84375 -36.109375 8.734375 -35.785156 9.453125 -35.140625 C 10.171875 -34.503906 10.53125 -33.703125 10.53125 -32.734375 C 10.53125 -31.703125 10.175781 -30.835938 9.46875 -30.140625 C 8.769531 -29.441406 7.875 -29.09375 6.78125 -29.09375 Z M 6.78125 -29.09375 "/></g></g></g><g fill="#000000" fill-opacity="1"><g transform="translate(136.31589, 46.250058)"><g><path d="M 18.84375 -1.359375 C 18.15625 -0.796875 17.320312 -0.375 16.34375 -0.09375 C 15.363281 0.1875 14.328125 0.328125 13.234375 0.328125 C 10.492188 0.328125 8.375 -0.382812 6.875 -1.8125 C 5.375 -3.25 4.625 -5.34375 4.625 -8.09375 L 4.625 -20.109375 L 0.515625 -20.109375 L 0.515625 -24.78125 L 4.625 -24.78125 L 4.625 -30.484375 L 10.46875 -30.484375 L 10.46875 -24.78125 L 17.15625 -24.78125 L 17.15625 -20.109375 L 10.46875 -20.109375 L 10.46875 -8.234375 C 10.46875 -7.015625 10.765625 -6.082031 11.359375 -5.4375 C 11.953125 -4.800781 12.8125 -4.484375 13.9375 -4.484375 C 15.25 -4.484375 16.335938 -4.828125 17.203125 -5.515625 Z M 18.84375 -1.359375 "/></g></g></g><g fill="#000000" fill-opacity="1"><g transform="translate(158.196959, 46.250058)"><g><path d="M 14.03125 -10.703125 L 9.6875 -6.59375 L 9.6875 0 L 3.828125 0 L 3.828125 -34.703125 L 9.6875 -34.703125 L 9.6875 -13.75 L 21.796875 -24.96875 L 28.8125 -24.96875 L 18.375 -14.5 L 29.796875 0 L 22.6875 0 Z M 14.03125 -10.703125 "/></g></g></g><g fill="#000000" fill-opacity="1"><g transform="translate(189.989618, 46.250058)"><g><path d="M 28.015625 -24.96875 L 28.015625 0 L 22.453125 0 L 22.453125 -3.1875 C 21.515625 -2.0625 20.34375 -1.191406 18.9375 -0.578125 C 17.53125 0.0234375 16.019531 0.328125 14.40625 0.328125 C 11.070312 0.328125 8.441406 -0.597656 6.515625 -2.453125 C 4.597656 -4.304688 3.640625 -7.054688 3.640625 -10.703125 L 3.640625 -24.96875 L 9.5 -24.96875 L 9.5 -11.5 C 9.5 -9.257812 10.003906 -7.582031 11.015625 -6.46875 C 12.023438 -5.363281 13.46875 -4.8125 15.34375 -4.8125 C 17.425781 -4.8125 19.082031 -5.457031 20.3125 -6.75 C 21.550781 -8.050781 22.171875 -9.914062 22.171875 -12.34375 L 22.171875 -24.96875 Z M 28.015625 -24.96875 "/></g></g></g></g></g></svg>